<svg width="100" height="63" viewBox="0 0 100 63" fill="none" xmlns="http://www.w3.org/2000/svg">
<rect width="100" height="63" fill="white"/>
<path d="M25.5584 40.6823C24.7086 40.6977 24.1362 40.4467 23.5401 40.1853C22.9131 39.9104 22.26 39.624 21.2307 39.624C20.1643 39.624 19.4813 39.918 18.8239 40.2011C18.2528 40.447 17.7011 40.6845 16.9339 40.7139M25.5584 40.6823L31.182 34.0644C31.1827 34.0647 31.1827 34.0647 31.182 34.0643M25.5584 40.6823C27.3642 40.6507 28.5006 39.0395 29.606 37.3965L25.5584 40.6823ZM16.9339 40.7139L16.9158 40.2142C16.9157 40.2142 16.9155 40.2143 16.9154 40.2143M16.9339 40.7139L16.9148 40.2143C16.915 40.2143 16.9152 40.2143 16.9154 40.2143M16.9339 40.7139C15.1904 40.7771 13.8672 38.9762 12.7619 37.3333C10.5047 34.0158 8.77657 27.981 11.1117 23.9052C12.2482 21.8672 14.3187 20.5877 16.5448 20.5561C17.516 20.5382 18.4422 20.9115 19.2523 21.2381C19.8705 21.4873 20.4211 21.7092 20.8725 21.7092C21.2748 21.7092 21.8036 21.4985 22.4281 21.2497C23.3984 20.8631 24.5998 20.3844 25.9164 20.4613M16.9154 40.2143C17.5865 40.1885 18.0595 39.9852 18.6374 39.737C18.6768 39.72 18.7168 39.7028 18.7573 39.6855C19.3978 39.4117 20.1335 39.124 21.2307 39.124C22.3418 39.124 23.066 39.4317 23.6944 39.707L23.7222 39.7192C24.324 39.9829 24.8098 40.1958 25.5494 40.1824L25.5497 40.1824C26.2884 40.1695 26.9106 39.8385 27.5015 39.2802C28.1027 38.7124 28.6339 37.9457 29.1911 37.1174L29.1918 37.1163C30.0798 35.8034 30.5836 34.5148 30.8038 33.8757M16.9154 40.2143C16.2342 40.2388 15.592 39.9034 14.9516 39.2996C14.3101 38.6947 13.7304 37.8772 13.1767 37.0542L13.1752 37.052C12.0869 35.4525 11.1175 33.1812 10.7073 30.8181C10.2964 28.451 10.4566 26.0544 11.5456 24.1537L11.5456 24.1537L11.5484 24.1487C12.6033 22.2569 14.5156 21.0849 16.5519 21.0561L16.554 21.056C17.3013 21.0422 18.0404 21.2944 18.7755 21.5856C18.8675 21.6221 18.9608 21.6597 19.0542 21.6974C19.3193 21.8042 19.5864 21.9119 19.8342 21.9973C20.1693 22.1128 20.5268 22.2092 20.8725 22.2092C21.2234 22.2092 21.6029 22.0953 21.9593 21.9668C22.1607 21.8943 22.3923 21.8021 22.6287 21.7081C22.8019 21.6391 22.9777 21.5692 23.146 21.5052C23.9916 21.1837 24.9123 20.9045 25.8832 20.9602M30.8038 33.8757C30.8932 33.9241 30.9707 33.9634 31.0335 33.994C31.0868 34.02 31.1291 34.0397 31.1568 34.0526L31.182 34.0643M30.8038 33.8757C30.7412 33.8418 30.6729 33.8035 30.5997 33.7604C30.2452 33.5518 29.7754 33.2316 29.3046 32.7752C28.3572 31.8567 27.4106 30.3884 27.3936 28.2067M30.8038 33.8757C30.8684 33.6881 30.9086 33.5565 30.9268 33.4966C30.9316 33.481 30.9349 33.4703 30.9367 33.4647L31.4117 33.6208L31.0556 33.9717C31.0994 34.0162 31.1427 34.0422 31.1468 34.0447L31.1471 34.0449C31.1593 34.0524 31.1689 34.0575 31.1722 34.0593C31.177 34.0619 31.1806 34.0637 31.182 34.0643M31.182 34.0643L27.3936 28.2067M27.3936 28.2067L27.8936 28.2021M27.3936 28.2067L31.3691 33.5999C30.9704 33.4147 27.9228 31.999 27.8936 28.2021M27.3936 28.2067C27.3936 28.2065 27.3936 28.2062 27.3936 28.206L27.8936 28.2021M27.3936 28.2067L27.8936 28.2021M27.3936 28.2067C27.3767 26.3686 28.1202 25.0092 28.8761 24.1057C29.2533 23.655 29.6349 23.3155 29.9307 23.0822C29.9681 23.0527 30.0042 23.0248 30.0387 22.9987M27.3936 28.2067L30.0387 22.9987M25.8832 20.9602C25.8818 20.9601 25.8804 20.96 25.879 20.9599L25.9164 20.4613M25.8832 20.9602C26.6461 21.0178 28.6257 21.2327 30.0387 22.9987M25.8832 20.9602C25.8845 20.9603 25.8859 20.9604 25.8873 20.9605L25.9164 20.4613M25.9164 20.4613L30.0387 22.9987M22.4191 16.3639L22.424 16.3583L22.4286 16.3525C23.1604 15.4491 24.3804 14.767 25.4558 14.5608C25.4388 15.8067 24.9258 17.02 24.1743 17.9654C23.4023 18.8904 22.2526 19.5973 21.1097 19.6673C21.1121 18.4554 21.7084 17.1901 22.4191 16.3639ZM38.9172 16.38H47.5241C49.755 16.38 51.6192 17.1575 52.925 18.4753C54.231 19.7933 55.0102 21.684 55.0102 23.9685C55.0102 26.2504 54.2172 28.1488 52.888 29.4756C51.5586 30.8026 49.6624 31.5885 47.3996 31.5885H42.1844H41.6844V32.0885V40.0087H38.9172V16.38ZM42.1844 18.6027H41.6844V19.1027V28.8815V29.3815H42.1844H46.5122C48.242 29.3815 49.6686 28.9105 50.6651 27.962C51.6652 27.0102 52.165 25.6412 52.165 23.9841C52.165 22.327 51.6651 20.9617 50.6666 20.0138C49.6719 19.0694 48.2492 18.6027 46.5277 18.6027H42.1844ZM67.9486 37.0544H67.6442L67.5045 37.3248C66.606 39.0629 64.5981 40.1981 62.391 40.1981C60.7389 40.1981 59.3771 39.6996 58.4355 38.8664C57.4993 38.0379 56.9443 36.8498 56.9443 35.3902C56.9443 33.952 57.4743 32.859 58.4806 32.0786C59.5088 31.2813 61.0811 30.7753 63.2155 30.6442L67.9165 30.3599L68.3864 30.3315V29.8608V28.5024C68.3864 27.3863 68.0224 26.46 67.2775 25.822C66.545 25.1946 65.5133 24.9059 64.2902 24.9059C62.3806 24.9059 60.8276 25.8458 60.3349 27.4178H57.878C58.2585 24.8413 60.8024 22.9044 64.3992 22.9044C66.4712 22.9044 68.1279 23.4547 69.2564 24.3806C70.375 25.2984 71.0136 26.6152 71.0136 28.2495V40.0086H68.5265V37.5544V37.0544H68.0265H67.9486ZM68.3864 32.4361V31.903L67.8544 31.9371L63.6685 32.2055C63.6682 32.2055 63.6679 32.2055 63.6675 32.2056C62.4462 32.2795 61.4431 32.5529 60.7332 33.0681C59.9974 33.6021 59.6181 34.3673 59.6181 35.2953C59.6181 36.2034 60.0115 36.9704 60.7053 37.4966C61.3861 38.013 62.3237 38.2756 63.4028 38.2756H63.403C66.1657 38.2756 68.3864 36.4709 68.3864 33.8261V32.4361ZM82.6085 41.3065L82.6083 41.3071C81.8625 43.4371 81.0904 44.7654 80.1168 45.5718C79.1598 46.3644 77.9411 46.7068 76.1682 46.7068C76.0392 46.7068 75.7449 46.6993 75.4554 46.6838C75.3797 46.6798 75.3056 46.6753 75.236 46.6703V44.7005C75.4579 44.713 75.6859 44.7211 75.8414 44.7211C76.7455 44.7211 77.519 44.5272 78.1492 44.0258C78.7722 43.5301 79.1911 42.7841 79.4944 41.8106L79.8365 40.7216L79.8867 40.5618L79.8306 40.4041L73.6857 23.1413H76.5453L80.874 37.3368L80.982 37.6909H81.3522H81.4301H81.8003L81.9083 37.3368L86.237 23.1413H88.9908L82.6085 41.3065Z" fill="#3C3C3C" stroke="#3C3C3C"/>
</svg>
