<svg width="100" height="63" viewBox="0 0 100 63" fill="none" xmlns="http://www.w3.org/2000/svg">
<rect width="100" height="63" fill="white"/>
<path d="M93.3378 23.1962L82.0684 48.3767H78.5827L82.7699 39.565L75.3505 23.1935H79.0171L84.386 35.7419H84.4561L89.6551 23.1935L93.3378 23.1962ZM46.5176 30.9826V41.1838H42.9752V16.0033H52.3478C54.5727 15.9423 56.7393 16.7194 58.4182 18.1806C60.0775 19.5431 60.9894 21.4695 60.9624 23.5065C60.9738 24.5316 60.7505 25.5457 60.3095 26.4712C59.8685 27.3967 59.2216 28.209 58.4182 28.8458C56.7887 30.2785 54.7652 30.9826 52.3478 30.9826H46.5176ZM46.5041 19.1087V27.8907H52.4342C53.7252 27.937 54.9824 27.4727 55.9334 26.5984C56.848 25.7836 57.3525 24.672 57.3525 23.52C57.3525 22.3544 56.8453 21.2429 55.9334 20.4416C55.4677 19.9983 54.9185 19.6519 54.3178 19.4227C53.7171 19.1934 53.0768 19.0858 52.4342 19.106L46.5041 19.1087ZM68.058 23.1962C70.3054 23.1962 72.0914 23.8275 73.3972 25.0794C74.703 26.3313 75.3505 28.0445 75.3505 30.2218V40.6334H72.4287V38.2861H72.3019C71.0365 40.2125 69.3638 41.1811 67.2702 41.1811C65.4707 41.1811 63.9814 40.6334 62.7727 39.5218C62.1895 39.0056 61.7254 38.3689 61.4123 37.6557C61.0993 36.9425 60.9449 36.1699 60.9597 35.3912C60.9597 33.6483 61.591 32.2588 62.8698 31.2174C64.1352 30.1921 65.8349 29.6714 67.9555 29.6714C69.7685 29.6714 71.2578 30.0222 72.4233 30.7101V29.979C72.427 29.4482 72.3173 28.9228 72.1014 28.4379C71.8855 27.9531 71.5684 27.52 71.1714 27.1677C70.3718 26.4192 69.3151 26.0067 68.2199 26.0156C66.5202 26.0156 65.1712 26.7603 64.1729 28.2496L61.4885 26.5067C62.9643 24.2997 65.155 23.1908 68.0499 23.1908L68.058 23.1962ZM64.1109 35.464C64.1049 35.8638 64.1934 36.2594 64.3692 36.6186C64.545 36.9777 64.8032 37.2902 65.1226 37.5307C65.7971 38.0784 66.6416 38.3752 67.4968 38.359C68.7756 38.359 70.0113 37.8248 70.9259 36.8832C71.8945 35.9847 72.4449 34.7194 72.4449 33.3974C71.4898 32.6095 70.1678 32.2156 68.4681 32.2156C67.2162 32.2156 66.191 32.5259 65.3627 33.1437C64.5345 33.7751 64.1109 34.5386 64.1109 35.464ZM21.6883 16.0033C25.3209 15.9595 28.8336 17.3015 31.5116 19.7563L27.3244 23.8599C25.7947 22.4408 23.7745 21.67 21.6883 21.7096C19.8678 21.7185 18.0953 22.2944 16.6172 23.3572C15.1391 24.42 14.0288 25.9169 13.4407 27.6398C12.8227 29.4243 12.8227 31.3647 13.4407 33.1491C14.0288 34.8721 15.1391 36.369 16.6172 37.4318C18.0953 38.4946 19.8678 39.0704 21.6883 39.0793C23.6686 39.0793 25.371 38.5883 26.6903 37.7169C27.4494 37.2226 28.0998 36.579 28.6021 35.8252C29.1045 35.0715 29.4481 34.2234 29.6122 33.3326H21.6856V27.7963H35.5261C35.6961 28.7649 35.7797 29.7362 35.7797 30.7182C35.7797 35.1025 34.1771 38.8122 31.409 41.3133C28.9782 43.5068 25.6489 44.7829 21.6856 44.7829C18.9804 44.7967 16.3238 44.0641 14.0081 42.6655C11.6924 41.267 9.80724 39.2569 8.56012 36.8562C7.53476 34.8556 7 32.6398 7 30.3918C7 28.1437 7.53476 25.9279 8.56012 23.9274C9.80575 21.5289 11.6883 19.5202 14.0009 18.1218C16.3136 16.7235 18.9669 15.9895 21.6695 16.0006L21.6883 16.0033Z" fill="#3C3C3C"/>
</svg>
