<svg width="22" height="22" viewBox="0 0 22 22" fill="none" xmlns="http://www.w3.org/2000/svg">
<path d="M11 5.75C9.96165 5.75 8.94661 6.05791 8.08326 6.63478C7.2199 7.21166 6.54699 8.0316 6.14963 8.99091C5.75227 9.95022 5.64831 11.0058 5.85088 12.0242C6.05345 13.0426 6.55346 13.9781 7.28769 14.7123C8.02192 15.4465 8.95738 15.9466 9.97578 16.1491C10.9942 16.3517 12.0498 16.2477 13.0091 15.8504C13.9684 15.453 14.7883 14.7801 15.3652 13.9167C15.9421 13.0534 16.25 12.0384 16.25 11C16.25 9.60761 15.6969 8.27226 14.7123 7.28769C13.7277 6.30312 12.3924 5.75 11 5.75ZM11 14.5C10.3078 14.5 9.63108 14.2947 9.0555 13.9101C8.47993 13.5256 8.03133 12.9789 7.76642 12.3394C7.50151 11.6999 7.4322 10.9961 7.56725 10.3172C7.7023 9.63825 8.03564 9.01461 8.52513 8.52513C9.01461 8.03564 9.63825 7.7023 10.3172 7.56725C10.9961 7.4322 11.6999 7.50151 12.3394 7.76642C12.9789 8.03133 13.5256 8.47993 13.9101 9.0555C14.2947 9.63108 14.5 10.3078 14.5 11C14.4971 11.9274 14.1274 12.8159 13.4717 13.4717C12.8159 14.1274 11.9274 14.4971 11 14.5ZM15.8125 0.0625H6.1875C4.56305 0.0625 3.00513 0.707811 1.85647 1.85647C0.707811 3.00513 0.0625 4.56305 0.0625 6.1875V15.8125C0.0625 17.437 0.707811 18.9949 1.85647 20.1435C3.00513 21.2922 4.56305 21.9375 6.1875 21.9375H15.8125C17.437 21.9375 18.9949 21.2922 20.1435 20.1435C21.2922 18.9949 21.9375 17.437 21.9375 15.8125V6.1875C21.9375 4.56305 21.2922 3.00513 20.1435 1.85647C18.9949 0.707811 17.437 0.0625 15.8125 0.0625ZM20.1875 15.8125C20.1875 16.387 20.0743 16.9559 19.8545 17.4867C19.6346 18.0175 19.3123 18.4998 18.9061 18.9061C18.4998 19.3123 18.0175 19.6346 17.4867 19.8545C16.9559 20.0743 16.387 20.1875 15.8125 20.1875H6.1875C5.61297 20.1875 5.04406 20.0743 4.51326 19.8545C3.98246 19.6346 3.50016 19.3123 3.09391 18.9061C2.68765 18.4998 2.36539 18.0175 2.14553 17.4867C1.92566 16.9559 1.8125 16.387 1.8125 15.8125V6.1875C1.8125 5.02718 2.27344 3.91438 3.09391 3.09391C3.91438 2.27344 5.02718 1.8125 6.1875 1.8125H15.8125C16.387 1.8125 16.9559 1.92566 17.4867 2.14553C18.0175 2.36539 18.4998 2.68765 18.9061 3.09391C19.3123 3.50016 19.6346 3.98246 19.8545 4.51326C20.0743 5.04406 20.1875 5.61297 20.1875 6.1875V15.8125ZM18 5.3125C18 5.57209 17.923 5.82585 17.7788 6.04169C17.6346 6.25752 17.4296 6.42575 17.1898 6.52509C16.9499 6.62443 16.686 6.65042 16.4314 6.59978C16.1768 6.54914 15.943 6.42413 15.7594 6.24058C15.5759 6.05702 15.4509 5.82316 15.4002 5.56856C15.3496 5.31396 15.3756 5.05006 15.4749 4.81023C15.5742 4.5704 15.7425 4.36542 15.9583 4.2212C16.1742 4.07698 16.4279 4 16.6875 4C17.0356 4 17.3694 4.13828 17.6156 4.38442C17.8617 4.63056 18 4.9644 18 5.3125Z" fill="#F8F8F8"/>
</svg>
