<svg width="17" height="17" viewBox="0 0 17 17" fill="none" xmlns="http://www.w3.org/2000/svg">
<path d="M8.16341 15.1322L8.5 15.4387L8.83659 15.1322L9.92337 14.1429L9.92409 14.1422L9.92914 14.1377C11.8481 12.3976 13.4813 10.9166 14.6293 9.51206C15.784 8.09941 16.5 6.70313 16.5 5.125C16.5 2.53076 14.4605 0.5 11.875 0.5C10.6088 0.5 9.39324 1.01055 8.5 1.84005C7.60676 1.01055 6.39116 0.5 5.125 0.5C2.53945 0.5 0.5 2.53076 0.5 5.125C0.5 6.70313 1.21602 8.09941 2.37068 9.51206C3.51869 10.9166 5.15193 12.3976 7.07085 14.1376L7.07591 14.1422L7.07663 14.1429L8.16341 15.1322Z" stroke="black"/>
</svg>
