<svg width="101" height="63" viewBox="0 0 101 63" fill="none" xmlns="http://www.w3.org/2000/svg">
<path d="M0.998535 1.18017e-05L1 62.9999L101 63L100.998 -0.000263393L101 -0.000488281L0.998535 1.18017e-05ZM33.7888 7.58355C39.4969 7.58355 44.7393 9.57577 48.8544 12.9035C45.3922 16.0113 42.8098 20.0943 41.5357 24.7223H43.5326C44.7086 20.9044 46.8449 17.5052 49.6607 14.8096C52.4765 17.5052 54.6127 20.9044 55.7888 24.7223H57.817C56.5252 20.1187 53.9392 16.06 50.4795 12.9725C54.6025 9.60255 59.8655 7.58345 65.5982 7.58345C78.8272 7.58345 89.5512 18.3428 89.5512 31.616C89.5512 44.8892 78.8272 55.6486 65.5982 55.6486C59.7702 55.6486 54.4262 53.5618 50.2732 50.0902C53.9882 46.8479 56.727 42.5015 57.9795 37.5568H56.0262C54.9141 41.7069 52.6757 45.3981 49.6606 48.2846C46.6456 45.3981 44.4103 41.7069 43.2981 37.5568H41.4387C42.6985 42.4298 45.4015 46.7155 49.0606 49.9273C44.9152 53.3558 39.5922 55.4165 33.7887 55.4165C20.5597 55.4165 9.83571 44.709 9.83571 31.5001C9.83571 18.2911 20.5597 7.58355 33.7888 7.58355ZM63.8013 24.4778C60.9232 24.4778 58.1232 27.002 58.1232 31.7414C58.1232 34.8842 59.6356 36.958 62.6107 36.958C63.4519 36.9583 64.792 36.6132 64.792 36.6132L65.2357 33.867C65.2357 33.867 64.0127 34.4876 63.1732 34.4876C61.4047 34.4876 60.6951 33.1232 60.6951 31.6568C60.6951 28.6821 62.2166 27.0452 63.9106 27.0452C65.1809 27.0452 66.2013 27.7663 66.2013 27.7663L66.6076 25.0953C66.6076 25.0953 65.0972 24.4778 63.8013 24.4778ZM87.9981 24.7098L85.495 24.716L84.9575 28.0203C84.9575 28.0203 84.0165 26.738 82.545 26.738C80.257 26.738 78.3512 29.4647 78.3512 32.6004C78.3512 34.6246 79.3655 36.61 81.445 36.61C82.9408 36.61 83.77 35.5787 83.77 35.5787L83.6606 36.4595H86.0919L87.9981 24.7098ZM16.3044 24.7442L14.3107 36.5222H16.7138L18.2326 27.641L18.4576 36.5222H20.1763L23.3826 27.641L21.9607 36.5222H24.5138L26.4826 24.7442H22.5326L20.0732 31.9702L19.9451 24.7443L16.3044 24.7442ZM41.4107 25.5091C41.3564 25.5638 39.9576 33.6557 39.9576 34.6412C39.9576 36.1004 40.7729 36.7522 41.9201 36.7417C42.7421 36.7347 43.3787 36.5275 43.6732 36.4407C43.704 36.4324 43.7638 36.4156 43.7638 36.4156L44.0732 34.309C43.905 34.309 43.6572 34.3811 43.4388 34.3811C42.5823 34.3811 42.4874 33.9239 42.5419 33.5848L43.2326 29.2868H44.5357L44.8513 26.9574H43.6232L43.8732 25.5091H41.4107ZM70.4576 26.6942C68.7803 26.6942 67.4951 27.249 67.4951 27.249L67.1388 29.4122C67.1388 29.4122 68.2003 28.9701 69.8045 28.9701C70.7153 28.9701 71.3825 29.0746 71.3825 29.8354C71.3825 30.2974 71.3013 30.4687 71.3013 30.4687C71.3013 30.4687 70.5811 30.406 70.2482 30.406C68.133 30.406 65.9107 31.3359 65.9107 34.1334C65.9107 36.3376 67.3696 36.842 68.2732 36.842C69.999 36.842 70.7432 35.6918 70.7826 35.6883L70.7013 36.6477H72.8545L73.8169 29.7257C73.8172 26.7886 71.3236 26.6942 70.4576 26.6942ZM30.0669 26.7067C28.3835 26.7067 27.0919 27.2616 27.0919 27.2616L26.7357 29.4247C26.7357 29.4247 27.8007 28.9826 29.4107 28.9826C30.3249 28.9826 30.9951 29.0876 30.9951 29.8479C30.9951 30.3098 30.9138 30.4812 30.9138 30.4812C30.9138 30.4812 30.1915 30.4185 29.8576 30.4185C27.7343 30.4185 25.5045 31.347 25.5045 34.1428C25.5045 36.3458 26.9663 36.8514 27.8732 36.8514C29.6053 36.8514 30.3522 35.7012 30.392 35.6978L30.3107 36.657H32.4732L33.4388 29.7383C33.4388 26.8028 30.9361 26.7067 30.0669 26.7067ZM37.7044 26.7067C35.8967 26.7067 34.0607 27.4388 34.0607 29.9389C34.0607 32.7717 37.1201 32.4855 37.1201 33.6788C37.1201 34.4753 36.2663 34.541 35.6076 34.541C34.4676 34.541 33.4425 34.1458 33.4388 34.1648L33.1107 36.3279C33.1697 36.3462 33.8045 36.6319 35.8545 36.6319C36.4049 36.6319 39.5513 36.7722 39.5513 33.4844C39.5513 30.4108 36.6388 31.02 36.6388 29.7852C36.6388 29.1704 37.1117 28.9764 37.9794 28.9764C38.324 28.9764 39.6514 29.0862 39.6514 29.0862L39.9576 26.901C39.9576 26.901 39.101 26.7067 37.7044 26.7067ZM49.0044 26.7067C46.4924 26.7072 44.6326 29.417 44.6326 32.4781C44.6326 36.0113 46.9628 36.8514 48.9482 36.8514C50.7808 36.8514 51.5888 36.4407 51.5888 36.4407L52.0263 34.03C52.0263 34.03 50.6322 34.6444 49.3732 34.6444C46.6906 34.6444 47.1607 32.6412 47.1607 32.6412H52.2388C52.2388 32.6412 52.567 31.0222 52.567 30.362C52.567 28.7148 51.7474 26.7067 49.0044 26.7067ZM58.1014 26.8102C56.9697 26.8102 56.1294 28.3369 56.1294 28.3369L56.3544 26.9356H54.0044L52.4264 36.6101H55.0232C55.7587 32.4788 55.893 29.1242 57.6482 29.7383C57.9554 28.1392 58.2535 27.5214 58.5888 26.8447C58.5888 26.8447 58.4314 26.8102 58.1014 26.8102ZM79.1418 26.8102C78.0102 26.8102 77.1701 28.3369 77.1701 28.3369L77.3951 26.9356H75.0451L73.4669 36.6101H76.0607C76.7965 32.4788 76.9342 29.1242 78.6888 29.7383C78.9966 28.1392 79.2943 27.5214 79.6294 26.8447C79.6294 26.8447 79.4717 26.8102 79.1418 26.8102ZM48.9919 28.8886C50.4186 28.8886 50.1576 30.5042 50.1576 30.6348H47.3482C47.3482 30.4681 47.6139 28.8886 48.9919 28.8886ZM82.9388 29.0767C83.8468 29.0764 84.3138 29.6918 84.3138 31.1395C84.3138 32.4531 83.6534 34.2086 82.2856 34.2086C81.3778 34.2086 80.9512 33.4566 80.9512 32.2775C80.9512 30.3496 81.8305 29.0767 82.9388 29.0767ZM70.4607 32.3684C70.8311 32.3689 70.9077 32.405 70.9701 32.4218C70.9611 32.4203 70.9594 32.422 70.9951 32.428C71.042 32.8589 70.7356 34.8796 69.2544 34.8796C68.4907 34.8796 68.2951 34.2703 68.2951 33.9108C68.2951 33.2098 68.6589 32.3684 70.4607 32.3684ZM30.0701 32.3778C30.4908 32.3783 30.5367 32.4255 30.6076 32.4374C30.6546 32.8681 30.347 34.8858 28.8607 34.8858C28.094 34.8858 27.8951 34.2795 27.8951 33.9202C27.8951 33.2196 28.2611 32.3778 30.0701 32.3778Z" fill="white"/>
</svg>
