<svg width="18" height="20" viewBox="0 0 18 20" fill="none" xmlns="http://www.w3.org/2000/svg">
<path d="M13.9833 3.305C13.2428 2.45959 12.8347 1.37389 12.835 0.25H9.48749V13.6833C9.46167 14.4103 9.15476 15.0988 8.6314 15.604C8.10804 16.1092 7.40906 16.3916 6.68165 16.3917C5.14332 16.3917 3.86499 15.135 3.86499 13.575C3.86499 11.7117 5.66332 10.3142 7.51582 10.8883V7.465C3.77832 6.96667 0.506653 9.87 0.506653 13.575C0.506653 17.1825 3.49665 19.75 6.67082 19.75C10.0725 19.75 12.835 16.9875 12.835 13.575V6.76083C14.1924 7.73567 15.8221 8.2587 17.4933 8.25583V4.90833C17.4933 4.90833 15.4567 5.00583 13.9833 3.305Z" fill="#F8F8F8"/>
</svg>
