<svg width="17" height="17" viewBox="0 0 17 17" fill="none" xmlns="http://www.w3.org/2000/svg">
<path d="M16.1667 13.2917C16.1667 10.7425 11.0588 9.45833 8.50004 9.45833C5.94129 9.45833 0.833374 10.7425 0.833374 13.2917V16.1667H16.1667V13.2917Z" stroke="black"/>
<path d="M11.2106 1.95609C10.4917 1.2372 9.5167 0.833334 8.50004 0.833334C7.48338 0.833334 6.50835 1.2372 5.78946 1.95609C5.07057 2.67498 4.66671 3.65 4.66671 4.66667C4.66671 5.68333 5.07057 6.65835 5.78946 7.37724C6.50835 8.09613 7.48338 8.5 8.50004 8.5C9.5167 8.5 10.4917 8.09613 11.2106 7.37724C11.9295 6.65835 12.3334 5.68333 12.3334 4.66667C12.3334 3.65 11.9295 2.67498 11.2106 1.95609Z" stroke="black"/>
</svg>
