<svg width="101" height="64" viewBox="0 0 101 64" fill="none" xmlns="http://www.w3.org/2000/svg">
<path d="M0 0L2.3365e-05 63C7.99854 63 3.8095 63.0387 2.3365e-05 63H100.053C100.051 60.6733 100.049 57.473 100.053 63L99.9999 0.0548408C99.394 0.0548565 96.9995 0.0531954 99.9999 0.0548408L0 0ZM59.725 18.7752C62.1588 18.7752 64.1092 19.3145 65.353 19.816L64.503 25.1799L63.9405 24.8946C62.7818 24.3932 61.2936 23.9105 59.2406 23.9447C56.783 23.9447 55.6469 25.0445 55.6469 26.0735C55.6326 27.2329 56.9744 27.9975 59.1687 29.1425C62.7904 30.9091 64.4642 33.0511 64.4406 35.867C64.3918 41.0049 60.1082 44.3251 53.5093 44.3251C50.694 44.294 47.9818 43.6961 46.5156 43.0052L47.3969 37.4626L48.2062 37.8577C50.2679 38.7818 51.603 39.1556 54.1156 39.1556C55.9199 39.1556 57.8564 38.3977 57.8718 36.7385C57.8835 35.6551 57.0624 34.8826 54.6187 33.6694C52.2375 32.4852 49.0807 30.5016 49.1157 26.945C49.1529 22.1336 53.522 18.7752 59.725 18.7752ZM8.84365 19.5621H18.978C20.3427 19.6139 21.4445 20.0547 21.8249 21.5403L24.0093 32.8512V32.8574L24.6655 36.2464L30.8186 19.5621H37.475L27.5811 43.9834L20.9311 43.9896L15.6374 24.2833C18.7872 25.9573 21.4688 27.8942 23.0218 30.5595C22.6214 29.7161 22.0938 28.7641 21.4187 27.8258C20.6325 26.7332 18.9346 25.3224 18.2249 24.7222C15.7519 22.6309 12.3935 20.9418 8.76555 20.0481L8.84365 19.5621ZM40.1218 19.5903H46.6312L42.5592 43.974H36.0499L40.1218 19.5903ZM76.8874 19.5903H81.8187L86.9812 43.974H81.0624C81.0624 43.974 80.4752 41.1727 80.2843 40.3186C79.354 40.3186 72.8476 40.3093 72.1155 40.3093C71.8678 40.9693 70.7718 43.9739 70.7718 43.9739H64.0749L73.5468 21.6155C74.2174 20.0267 75.3605 19.5903 76.8874 19.5903ZM77.3718 26.1486C77.0515 27.0556 76.4938 28.5203 76.5311 28.456C76.5311 28.456 74.5274 33.817 74.0031 35.2087L79.2686 35.2055C78.7795 32.8804 78.2899 30.5553 77.7999 28.2304L77.3718 26.1486Z" fill="white"/>
</svg>
